<svg xmlns="http://www.w3.org/2000/svg" xmlns:xlink="http://www.w3.org/1999/xlink" width="500" zoomAndPan="magnify" viewBox="0 0 375 374.999991" height="500" preserveAspectRatio="xMidYMid meet" version="1.0"><defs><g/><clipPath id="b1a60a40a5"><path d="M 135.90625 78.800781 L 239.40625 78.800781 L 239.40625 228.800781 L 135.90625 228.800781 Z M 135.90625 78.800781 " clip-rule="nonzero"/></clipPath></defs><g clip-path="url(#b1a60a40a5)"><path fill="#5e17eb" d="M 203.808594 183.078125 L 203.808594 208.753906 C 222.570312 208.753906 237.9375 194.089844 239.058594 175.585938 L 211.332031 175.585938 C 207.171875 175.585938 203.808594 178.945312 203.808594 183.078125 Z M 203.808594 103.007812 L 203.808594 141.136719 L 145.351562 141.136719 C 140.132812 141.136719 135.90625 145.363281 135.90625 150.582031 L 135.90625 228.632812 L 159.46875 220.824219 C 166.480469 218.484375 171.1875 211.953125 171.1875 204.558594 L 171.1875 170.144531 L 229.644531 170.144531 C 234.863281 170.144531 239.089844 165.917969 239.089844 160.699219 L 239.089844 78.964844 L 215.527344 86.746094 C 208.546875 89.082031 203.808594 95.613281 203.808594 103.007812 Z M 171.1875 104.03125 C 152.683594 104.03125 137.476562 118.34375 136.035156 136.496094 L 163.726562 136.496094 C 167.855469 136.496094 171.21875 133.132812 171.21875 129.003906 L 171.21875 104.03125 Z M 171.1875 104.03125 " fill-opacity="1" fill-rule="nonzero"/></g><g fill="#5e17eb" fill-opacity="1"><g transform="translate(94.156499, 265.724865)"><g><path d="M 12.453125 -21.84375 L 17 -21.84375 L 17 0 L 12.453125 0 L 12.453125 -9.1875 L 6.109375 -9.1875 L 6.109375 0 L 1.5625 0 L 1.5625 -21.84375 L 6.109375 -21.84375 L 6.109375 -13.109375 L 12.453125 -13.109375 Z M 12.453125 -21.84375 "/></g></g></g><g fill="#5e17eb" fill-opacity="1"><g transform="translate(115.769948, 265.724865)"><g><path d="M 5.859375 -21.890625 L 12.09375 -21.890625 L 17.5625 0 L 12.71875 0 L 11.640625 -4.703125 L 6.296875 -4.703125 L 5.265625 0 L 0.390625 0 Z M 8.953125 -16.65625 L 7.171875 -8.625 L 10.75 -8.625 Z M 8.953125 -16.65625 "/></g></g></g><g fill="#5e17eb" fill-opacity="1"><g transform="translate(136.767476, 265.724865)"><g><path d="M 5.6875 -10.359375 C 5.6875 -8.898438 5.78125 -7.664062 5.96875 -6.65625 C 6.164062 -5.65625 6.523438 -4.890625 7.046875 -4.359375 C 7.578125 -3.828125 8.328125 -3.5625 9.296875 -3.5625 L 9.546875 -3.5625 C 10.648438 -3.5625 11.429688 -3.914062 11.890625 -4.625 C 12.347656 -5.332031 12.578125 -6.273438 12.578125 -7.453125 L 17.109375 -7.453125 L 17.109375 -7.203125 C 17.109375 -4.503906 16.453125 -2.566406 15.140625 -1.390625 C 13.835938 -0.222656 11.890625 0.359375 9.296875 0.359375 C 6.460938 0.359375 4.382812 -0.484375 3.0625 -2.171875 C 1.75 -3.859375 1.09375 -6.585938 1.09375 -10.359375 L 1.09375 -11.484375 C 1.09375 -15.273438 1.75 -18.007812 3.0625 -19.6875 C 4.382812 -21.363281 6.460938 -22.203125 9.296875 -22.203125 C 11.890625 -22.203125 13.835938 -21.609375 15.140625 -20.421875 C 16.453125 -19.234375 17.109375 -17.28125 17.109375 -14.5625 L 17.109375 -13.546875 L 12.578125 -13.546875 C 12.578125 -15.046875 12.367188 -16.207031 11.953125 -17.03125 C 11.546875 -17.863281 10.742188 -18.28125 9.546875 -18.28125 L 9.296875 -18.28125 C 8.328125 -18.28125 7.578125 -18.019531 7.046875 -17.5 C 6.523438 -16.976562 6.164062 -16.207031 5.96875 -15.1875 C 5.78125 -14.164062 5.6875 -12.929688 5.6875 -11.484375 Z M 5.6875 -10.359375 "/></g></g></g><g fill="#5e17eb" fill-opacity="1"><g transform="translate(158.01697, 265.724865)"><g><path d="M 6.109375 -21.84375 L 6.109375 -13.265625 L 11.484375 -21.84375 L 16.96875 -21.84375 L 10.84375 -13.078125 L 16.96875 0 L 11.921875 0 L 7.953125 -8.9375 L 6.109375 -6.296875 L 6.109375 0 L 1.5625 0 L 1.5625 -21.84375 Z M 6.109375 -21.84375 "/></g></g></g><g fill="#5e17eb" fill-opacity="1"><g transform="translate(178.566564, 265.724865)"><g><path d="M 5.859375 -21.890625 L 12.09375 -21.890625 L 17.5625 0 L 12.71875 0 L 11.640625 -4.703125 L 6.296875 -4.703125 L 5.265625 0 L 0.390625 0 Z M 8.953125 -16.65625 L 7.171875 -8.625 L 10.75 -8.625 Z M 8.953125 -16.65625 "/></g></g></g><g fill="#5e17eb" fill-opacity="1"><g transform="translate(199.564096, 265.724865)"><g><path d="M 10.046875 -17.921875 L 10.046875 0 L 5.515625 0 L 5.515625 -17.921875 L 0.46875 -17.921875 L 0.46875 -21.84375 L 15.125 -21.84375 L 15.125 -17.921875 Z M 10.046875 -17.921875 "/></g></g></g><g fill="#5e17eb" fill-opacity="1"><g transform="translate(218.209943, 265.724865)"><g><path d="M 12.453125 -21.84375 L 17 -21.84375 L 17 0 L 12.453125 0 L 12.453125 -9.1875 L 6.109375 -9.1875 L 6.109375 0 L 1.5625 0 L 1.5625 -21.84375 L 6.109375 -21.84375 L 6.109375 -13.109375 L 12.453125 -13.109375 Z M 12.453125 -21.84375 "/></g></g></g><g fill="#5e17eb" fill-opacity="1"><g transform="translate(239.82339, 265.724865)"><g><path d="M 9.40625 0.359375 C 6.59375 0.359375 4.503906 -0.484375 3.140625 -2.171875 C 1.773438 -3.859375 1.09375 -6.585938 1.09375 -10.359375 L 1.09375 -11.484375 C 1.09375 -15.273438 1.773438 -18.007812 3.140625 -19.6875 C 4.503906 -21.363281 6.59375 -22.203125 9.40625 -22.203125 C 12.238281 -22.203125 14.335938 -21.363281 15.703125 -19.6875 C 17.066406 -18.007812 17.75 -15.273438 17.75 -11.484375 L 17.75 -10.359375 C 17.75 -6.585938 17.066406 -3.859375 15.703125 -2.171875 C 14.335938 -0.484375 12.238281 0.359375 9.40625 0.359375 Z M 9.296875 -3.5625 L 9.546875 -3.5625 C 10.941406 -3.5625 11.882812 -4.144531 12.375 -5.3125 C 12.875 -6.488281 13.125 -8.171875 13.125 -10.359375 L 13.125 -11.484375 C 13.125 -13.660156 12.875 -15.335938 12.375 -16.515625 C 11.882812 -17.691406 10.941406 -18.28125 9.546875 -18.28125 L 9.296875 -18.28125 C 7.898438 -18.28125 6.945312 -17.691406 6.4375 -16.515625 C 5.9375 -15.335938 5.6875 -13.660156 5.6875 -11.484375 L 5.6875 -10.359375 C 5.6875 -8.171875 5.9375 -6.488281 6.4375 -5.3125 C 6.945312 -4.144531 7.898438 -3.5625 9.296875 -3.5625 Z M 9.296875 -3.5625 "/></g></g></g><g fill="#5e17eb" fill-opacity="1"><g transform="translate(261.716795, 265.724865)"><g><path d="M 17.5625 -21.84375 L 17.5625 0 L 12.765625 0 L 5.71875 -13.546875 L 5.859375 -9.15625 L 5.859375 0 L 1.5625 0 L 1.5625 -21.84375 L 6.359375 -21.84375 L 13.390625 -8.28125 L 13.25 -12.6875 L 13.25 -21.84375 Z M 17.5625 -21.84375 "/></g></g></g><g fill="#5e17eb" fill-opacity="1"><g transform="translate(125.914309, 294.224863)"><g><path d="M 16.265625 0.0625 L 13.109375 -16.65625 L 9.9375 0.0625 L 4.140625 0.0625 L 0.53125 -21.84375 L 5.265625 -21.84375 L 7.359375 -6.125 L 10.296875 -21.84375 L 15.9375 -21.84375 L 18.875 -6.125 L 20.96875 -21.84375 L 25.703125 -21.84375 L 22.09375 0.0625 Z M 16.265625 0.0625 "/></g></g></g><g fill="#5e17eb" fill-opacity="1"><g transform="translate(155.198711, 294.224863)"><g><path d="M 1.5625 -21.84375 L 14.921875 -21.84375 L 14.921875 -17.921875 L 6.109375 -17.921875 L 6.109375 -13.109375 L 13.53125 -13.109375 L 13.53125 -9.1875 L 6.109375 -9.1875 L 6.109375 -3.921875 L 14.921875 -3.921875 L 14.921875 0 L 1.5625 0 Z M 1.5625 -21.84375 "/></g></g></g><g fill="#5e17eb" fill-opacity="1"><g transform="translate(174.292505, 294.224863)"><g><path d="M 1.5625 -21.84375 L 14.921875 -21.84375 L 14.921875 -17.921875 L 6.109375 -17.921875 L 6.109375 -13.109375 L 13.53125 -13.109375 L 13.53125 -9.1875 L 6.109375 -9.1875 L 6.109375 -3.921875 L 14.921875 -3.921875 L 14.921875 0 L 1.5625 0 Z M 1.5625 -21.84375 "/></g></g></g><g fill="#5e17eb" fill-opacity="1"><g transform="translate(193.386295, 294.224863)"><g><path d="M 6.109375 -21.84375 L 6.109375 -13.265625 L 11.484375 -21.84375 L 16.96875 -21.84375 L 10.84375 -13.078125 L 16.96875 0 L 11.921875 0 L 7.953125 -8.9375 L 6.109375 -6.296875 L 6.109375 0 L 1.5625 0 L 1.5625 -21.84375 Z M 6.109375 -21.84375 "/></g></g></g><g fill="#5e17eb" fill-opacity="1"><g transform="translate(213.935889, 294.224863)"><g><path d="M 14.171875 0 L 1.5625 0 L 1.5625 -21.84375 L 6.109375 -21.84375 L 6.109375 -3.921875 L 14.171875 -3.921875 Z M 14.171875 0 "/></g></g></g><g fill="#5e17eb" fill-opacity="1"><g transform="translate(231.573882, 294.224863)"><g><path d="M 11.03125 -6.6875 L 11.03125 0 L 6.5 0 L 6.5 -6.6875 L 0.21875 -21.84375 L 5.1875 -21.84375 L 8.765625 -12.296875 L 12.3125 -21.84375 L 17.28125 -21.84375 Z M 11.03125 -6.6875 "/></g></g></g></svg>